<svg width="16" height="16" viewBox="0 0 16 16" fill="none" xmlns="http://www.w3.org/2000/svg">
<path d="M2.59469 8.75C1.58134 7.0332 0.910907 5.03524 0.63816 2.81089C0.621763 2.67717 0.613564 2.61031 0.615159 2.47621C0.626042 1.56117 1.4411 0.640073 2.34801 0.517903C2.48091 0.5 2.59274 0.5 2.81641 0.5V0.5C3.05108 0.5 3.16842 0.5 3.27281 0.510988C4.03259 0.590963 4.68043 1.09678 4.94229 1.81448C4.97827 1.91309 5.00673 2.02693 5.06365 2.25459L5.11235 2.44941C5.25096 3.00385 5.32027 3.28107 5.34993 3.55074C5.44905 4.45201 5.23903 5.36023 4.75428 6.12649C4.60925 6.35575 4.42527 6.5744 4.05732 7.0117L2.59469 8.75ZM2.59469 8.75C3.68602 10.5989 5.17506 12.1217 6.9934 13.25M6.9934 13.25C8.76659 14.3503 10.8529 15.0754 13.1889 15.3618C13.3228 15.3782 13.3897 15.3864 13.5238 15.3848C14.4388 15.374 15.3599 14.5589 15.4821 13.652C15.5 13.5191 15.5 13.3997 15.5 13.1609V13.1609C15.5 12.9413 15.5 12.8316 15.489 12.7272C15.409 11.9674 14.9032 11.3196 14.1855 11.0577C14.0869 11.0217 13.9731 10.9933 13.7454 10.9364L13.4711 10.8678C12.8587 10.7147 12.5524 10.6381 12.2521 10.6097C11.4679 10.5354 10.6792 10.6944 9.98498 11.0666C9.71906 11.2091 9.46639 11.3983 8.96105 11.7767L6.9934 13.25Z" stroke="white" stroke-linecap="round" stroke-linejoin="round"/>
</svg>
