<svg width="14" height="19" viewBox="0 0 14 19" fill="none" xmlns="http://www.w3.org/2000/svg">
<path d="M12.6064 17.7762H1.39343C1.33004 17.7771 1.26712 17.7649 1.20867 17.7404C1.15021 17.7158 1.09748 17.6794 1.05379 17.6335C1.01011 17.5875 0.976419 17.533 0.954853 17.4734C0.933286 17.4138 0.924309 17.3503 0.928488 17.2871L1.49004 5.47625C1.49624 5.35718 1.54794 5.24503 1.63448 5.16299C1.72101 5.08096 1.83575 5.0353 1.95499 5.03546H11.8939C12.0122 5.03521 12.1261 5.08003 12.2125 5.1608C12.2988 5.24157 12.3512 5.35221 12.3589 5.47022L13.0714 17.2871C13.0747 17.3501 13.0651 17.4132 13.0432 17.4724C13.0213 17.5316 12.9876 17.5858 12.9441 17.6315C12.9006 17.6773 12.8482 17.7137 12.7901 17.7386C12.7321 17.7635 12.6696 17.7762 12.6064 17.7762Z" stroke="#7F7F7F" stroke-width="1.20765" stroke-miterlimit="10"/>
<path d="M4.17706 6.12841V3.78557C4.17706 3.0425 4.47225 2.32987 4.99767 1.80444C5.5231 1.27901 6.23574 0.983826 6.97881 0.983826C7.72188 0.983826 8.43451 1.27901 8.95994 1.80444C9.48537 2.32987 9.78055 3.0425 9.78055 3.78557V6.14048" stroke="#7F7F7F" stroke-width="1.20765" stroke-miterlimit="10" stroke-linecap="round"/>
</svg>
