<svg width="17" height="23" viewBox="0 0 17 23" fill="none" xmlns="http://www.w3.org/2000/svg">
<path d="M15.6766 21.7621H1.97183C1.89434 21.7633 1.81745 21.7484 1.74601 21.7184C1.67456 21.6884 1.61011 21.6439 1.55671 21.5878C1.50332 21.5316 1.46215 21.465 1.43579 21.3921C1.40943 21.3192 1.39846 21.2417 1.40356 21.1644L2.08991 6.72893C2.09748 6.58339 2.16068 6.44633 2.26644 6.34606C2.3722 6.24579 2.51244 6.18999 2.65818 6.19019H14.8058C14.9503 6.18988 15.0895 6.24466 15.1951 6.34338C15.3007 6.44209 15.3647 6.57732 15.374 6.72155L16.2449 21.1644C16.2489 21.2414 16.2372 21.3185 16.2104 21.3909C16.1837 21.4633 16.1424 21.5295 16.0893 21.5854C16.0361 21.6413 15.9721 21.6859 15.9011 21.7162C15.8302 21.7466 15.7538 21.7622 15.6766 21.7621Z" stroke="white" stroke-width="1.20765" stroke-miterlimit="10"/>
<path d="M5.37402 7.52586V4.66239C5.37402 3.7542 5.7348 2.8832 6.37699 2.24101C7.01918 1.59882 7.89018 1.23804 8.79838 1.23804C9.70657 1.23804 10.5776 1.59882 11.2198 2.24101C11.862 2.8832 12.2227 3.7542 12.2227 4.66239V7.54062" stroke="white" stroke-width="1.20765" stroke-miterlimit="10" stroke-linecap="round"/>
</svg>
