<svg width="18" height="18" viewBox="0 0 18 18" fill="none" xmlns="http://www.w3.org/2000/svg">
<path d="M13.5 6L12.75 6.5V6.5C11.8109 7.12608 11.3413 7.43912 10.8591 7.63226C9.6658 8.11024 8.3342 8.11024 7.14086 7.63226C6.65868 7.43912 6.18912 7.12608 5.25 6.5V6.5L4.5 6M8.25 15.75H9.75C11.3777 15.75 12.1916 15.75 12.8572 15.5623C14.5315 15.0901 15.8401 13.7815 16.3123 12.1072C16.5 11.4416 16.5 10.6277 16.5 9V9C16.5 7.37228 16.5 6.55842 16.3123 5.8928C15.8401 4.21847 14.5315 2.90993 12.8572 2.43772C12.1916 2.25 11.3777 2.25 9.75 2.25H8.25C6.62228 2.25 5.80842 2.25 5.1428 2.43772C3.46847 2.90993 2.15993 4.21847 1.68772 5.8928C1.5 6.55842 1.5 7.37228 1.5 9V9C1.5 10.6277 1.5 11.4416 1.68772 12.1072C2.15993 13.7815 3.46847 15.0901 5.1428 15.5623C5.80842 15.75 6.62228 15.75 8.25 15.75Z" stroke="white" stroke-linecap="round"/>
</svg>
