<svg width="18" height="18" viewBox="0 0 18 18" fill="none" xmlns="http://www.w3.org/2000/svg">
<path d="M14.8333 12.75C15.8757 13.1455 16.5 13.649 16.5 14.1974C16.5 15.4691 13.1421 16.5 9 16.5C4.85786 16.5 1.5 15.4691 1.5 14.1974C1.5 13.649 2.12433 13.1455 3.16667 12.75M10.5 6C10.5 6.82843 9.82843 7.5 9 7.5C8.17157 7.5 7.5 6.82843 7.5 6C7.5 5.17157 8.17157 4.5 9 4.5C9.82843 4.5 10.5 5.17157 10.5 6ZM9 13.5C10.1667 13.5 14.25 11.3112 14.25 6.60005C14.25 3.60002 11.9167 1.5 9 1.5C6.08333 1.5 3.75 3.60002 3.75 6.60005C3.75 11.3112 7.83333 13.5 9 13.5Z" stroke="white" stroke-linecap="round" stroke-linejoin="round"/>
</svg>
