<svg width="62" height="62" viewBox="0 0 62 62" fill="none" xmlns="http://www.w3.org/2000/svg">
<circle cx="31" cy="31" r="31" fill="#064628"/>
<path d="M39.2176 36.2839C40.6863 36.8412 41.5661 37.5508 41.5661 38.3234C41.5661 40.1154 36.8345 41.568 30.9979 41.568C25.1612 41.568 20.4297 40.1154 20.4297 38.3234C20.4297 37.5508 21.3094 36.8412 22.7782 36.2839M33.1115 26.7726C33.1115 27.9399 32.1652 28.8862 30.9979 28.8862C29.8305 28.8862 28.8842 27.9399 28.8842 26.7726C28.8842 25.6052 29.8305 24.6589 30.9979 24.6589C32.1652 24.6589 33.1115 25.6052 33.1115 26.7726ZM30.9979 37.3407C32.6418 37.3407 38.3956 34.2565 38.3956 27.6181C38.3956 23.3908 35.1077 20.4316 30.9979 20.4316C26.888 20.4316 23.6001 23.3908 23.6001 27.6181C23.6001 34.2565 29.3539 37.3407 30.9979 37.3407Z" stroke="white" stroke-linecap="round" stroke-linejoin="round"/>
</svg>
