<svg width="32" height="32" viewBox="0 0 32 32" fill="none" xmlns="http://www.w3.org/2000/svg">
<path d="M16.0352 32H15.9648C7.1619 32 0 24.8381 0 16.0352V15.9648C0 7.1619 7.1619 0 15.9648 0H16.0352C24.8381 0 32 7.1619 32 15.9648V16.0352C32 24.8381 24.8381 32 16.0352 32ZM15.9648 1.08317C7.75873 1.08317 1.08317 7.75872 1.08317 15.9648V16.0352C1.08317 24.2413 7.75873 30.9168 15.9648 30.9168H16.0352C24.2413 30.9168 30.9168 24.2413 30.9168 16.0352V15.9648C30.9168 7.75872 24.2413 1.08317 16.0352 1.08317H15.9648Z" fill="url(#paint0_linear_683_58545)"/>
<path d="M25.1676 15.1794C24.7517 10.4871 20.7992 6.79565 16.0008 6.79565C10.925 6.79565 6.79492 10.9258 6.79492 15.9993C6.79492 17.8624 7.35275 19.5987 8.30919 21.049L7.16212 23.5912C6.85991 24.2595 7.39824 25.0026 8.12721 24.9257L12.3981 24.4708C13.5051 24.943 14.7226 25.2041 16.0008 25.2041C16.3257 25.2041 16.6485 25.1868 16.9648 25.1543C17.2572 25.1228 17.5443 25.0784 17.8281 25.0221C22.0145 24.1751 25.1795 20.4771 25.2044 16.0524V15.9993C25.2044 15.7242 25.1925 15.448 25.1676 15.1794ZM21.1133 13.9272L19.1809 16.9081L18.1584 18.4852C17.9407 18.821 17.4825 18.9011 17.1641 18.6585L15.4689 17.3739L14.4237 16.5821C14.3392 16.5182 14.2211 16.5203 14.1388 16.5875L11.5739 18.6802C11.1612 19.017 10.5968 18.5101 10.886 18.0639L12.696 15.2736L13.7185 13.6954C13.9362 13.3597 14.3933 13.2795 14.7129 13.521L16.3582 14.7688L17.4035 15.5596C17.4879 15.6245 17.606 15.6224 17.6883 15.5541L20.4244 13.3109C20.8371 12.973 21.4036 13.4799 21.1133 13.9272Z" fill="url(#paint1_linear_683_58545)"/>
<defs>
<linearGradient id="paint0_linear_683_58545" x1="4.68145" y1="27.3186" x2="27.3186" y2="4.68145" gradientUnits="userSpaceOnUse">
<stop stop-color="#0498FA"/>
<stop offset="0.34" stop-color="#5C5EFE"/>
<stop offset="0.73" stop-color="#F44E90"/>
<stop offset="1" stop-color="#FA8679"/>
</linearGradient>
<linearGradient id="paint1_linear_683_58545" x1="7.35167" y1="24.6484" x2="22.5052" y2="9.49491" gradientUnits="userSpaceOnUse">
<stop stop-color="#0498FA"/>
<stop offset="0.34" stop-color="#5C5EFE"/>
<stop offset="0.73" stop-color="#F44E90"/>
<stop offset="1" stop-color="#FA8679"/>
</linearGradient>
</defs>
</svg>
