<svg width="16" height="16" viewBox="0 0 16 16" fill="none" xmlns="http://www.w3.org/2000/svg">
<path d="M12.5568 15.4999C11.7994 15.4746 11.0526 15.315 10.3511 15.0286C8.5325 14.3448 6.56839 12.9917 4.78178 11.2167C2.99516 9.44174 1.66539 7.46599 0.969945 5.65028C0.347248 3.9917 0.344338 2.64155 0.967035 2.02176L1.24056 1.73078C1.80797 1.1401 2.44812 0.470842 3.29487 0.49994C3.87683 0.526128 4.45879 0.889853 5.04075 1.61148C6.75462 3.74145 5.98352 4.50091 5.08731 5.39422L4.93018 5.55135C4.78469 5.69684 4.50826 6.37482 7.08052 8.94708C7.7278 9.62371 8.44028 10.2348 9.20758 10.7715C9.56839 11.0072 10.2115 11.3535 10.4762 11.0974L10.6334 10.9345C11.5063 10.0441 12.2745 9.27298 14.4161 10.9868C15.1377 11.5688 15.5015 12.1304 15.5247 12.7327C15.5597 13.5795 14.8846 14.2225 14.2881 14.787L13.9971 15.0606C13.6026 15.397 13.0913 15.5642 12.5742 15.5261M3.23377 1.00333C2.63144 1.00333 2.08731 1.58529 1.60719 2.08578L1.31621 2.37676C0.859372 2.82778 0.905929 4.0528 1.44133 5.47278C2.10186 7.21866 3.41708 9.13622 5.13968 10.8617C6.86228 12.5872 8.77693 13.885 10.5286 14.5572C11.9457 15.0926 13.1474 15.1391 13.6217 14.6765L13.9127 14.3855C14.4307 13.8937 15.0184 13.3351 14.9923 12.7153C14.9748 12.2904 14.6664 11.8423 14.0728 11.3564C12.2978 9.93059 11.8002 10.434 10.9767 11.2691L10.8167 11.432C10.421 11.8249 9.78372 11.723 8.91369 11.1731C8.11708 10.6168 7.37732 9.98328 6.70515 9.2817C4.57518 7.15755 3.89138 5.85106 4.57518 5.1818L4.73522 5.02176C5.57324 4.19829 6.07664 3.70072 4.64793 1.92574C4.17072 1.34378 3.71388 1.0237 3.28905 1.00624H3.23377" fill="white"/>
<path d="M12.5568 15.4999C11.7994 15.4746 11.0526 15.315 10.3511 15.0286C8.5325 14.3448 6.56839 12.9917 4.78178 11.2167C2.99516 9.44174 1.66539 7.46599 0.969945 5.65028C0.347248 3.9917 0.344338 2.64155 0.967035 2.02176L1.24056 1.73078C1.80797 1.1401 2.44812 0.470842 3.29487 0.49994C3.87683 0.526128 4.45879 0.889853 5.04075 1.61148C6.75462 3.74145 5.98352 4.50091 5.08731 5.39422L4.93018 5.55135C4.78469 5.69684 4.50826 6.37482 7.08052 8.94708C7.7278 9.62371 8.44028 10.2348 9.20758 10.7715C9.56839 11.0072 10.2115 11.3535 10.4762 11.0974L10.6334 10.9345C11.5063 10.0441 12.2745 9.27298 14.4161 10.9868C15.1377 11.5688 15.5015 12.1304 15.5247 12.7327C15.5597 13.5795 14.8846 14.2225 14.2881 14.787L13.9971 15.0606C13.6026 15.397 13.0913 15.5642 12.5742 15.5261M3.23377 1.00333C2.63144 1.00333 2.08731 1.58529 1.60719 2.08578L1.31621 2.37676C0.859372 2.82778 0.905929 4.0528 1.44133 5.47278C2.10186 7.21866 3.41708 9.13622 5.13968 10.8617C6.86228 12.5872 8.77693 13.885 10.5286 14.5572C11.9457 15.0926 13.1474 15.1391 13.6217 14.6765L13.9127 14.3855C14.4307 13.8937 15.0184 13.3351 14.9923 12.7153C14.9748 12.2904 14.6664 11.8423 14.0728 11.3564C12.2978 9.93059 11.8002 10.434 10.9767 11.2691L10.8167 11.432C10.421 11.8249 9.78372 11.723 8.91369 11.1731C8.11708 10.6168 7.37732 9.98328 6.70515 9.2817C4.57518 7.15755 3.89138 5.85106 4.57518 5.1818L4.73522 5.02176C5.57324 4.19829 6.07664 3.70072 4.64793 1.92574C4.17072 1.34378 3.71388 1.0237 3.28905 1.00624H3.23377" stroke="white" stroke-width="0.29098"/>
<path d="M10.7817 0.820068C11.8197 1.09125 12.7701 1.6255 13.5413 2.3712C14.3125 3.11691 14.8784 4.04888 15.1843 5.0771" fill="white"/>
<path d="M10.7817 0.820068C11.8197 1.09125 12.7701 1.6255 13.5413 2.3712C14.3125 3.11691 14.8784 4.04888 15.1843 5.0771" stroke="white" stroke-width="0.581959" stroke-miterlimit="10" stroke-linecap="round"/>
<path d="M9.91187 3.17407C10.672 3.31839 11.3686 3.69516 11.9055 4.25234C12.4423 4.80953 12.793 5.51965 12.909 6.28464" fill="white"/>
<path d="M9.91187 3.17407C10.672 3.31839 11.3686 3.69516 11.9055 4.25234C12.4423 4.80953 12.793 5.51965 12.909 6.28464" stroke="white" stroke-width="0.581959" stroke-miterlimit="10" stroke-linecap="round"/>
<path d="M9.23096 5.5979C9.56048 5.5979 9.87651 5.7288 10.1095 5.96182C10.3425 6.19483 10.4734 6.51086 10.4734 6.84038" fill="white"/>
<path d="M9.23096 5.5979C9.56048 5.5979 9.87651 5.7288 10.1095 5.96182C10.3425 6.19483 10.4734 6.51086 10.4734 6.84038" stroke="white" stroke-width="0.581959" stroke-miterlimit="10" stroke-linecap="round"/>
</svg>
