<svg width="40" height="38" viewBox="0 0 40 38" fill="none" xmlns="http://www.w3.org/2000/svg">
<path d="M22.3452 15.0634L22.3452 15.064C22.3566 15.2283 22.4649 15.3693 22.6253 15.4226C22.7839 15.4741 22.9565 15.4254 23.0639 15.2996C25.0556 12.9562 27.5296 11.0804 30.4182 9.72333C30.7857 9.54886 31.2059 9.54051 31.578 9.67159L31.5812 9.67272C31.9175 9.7938 32.2066 10.0325 32.3624 10.3655C32.5012 10.66 32.5602 11.0266 32.4433 11.3915C32.3238 11.7648 32.0416 12.0696 31.624 12.2692C31.6219 12.2704 31.6163 12.2736 31.6032 12.2814L31.6019 12.2822C31.5843 12.2927 31.5463 12.3152 31.5011 12.3356L31.493 12.3392L31.4929 12.3392C31.4669 12.3503 31.4428 12.3582 31.4225 12.3638C24.6575 15.5621 21.3218 21.1172 19.7976 26.8735L18.8201 26.8217C17.699 19.5491 15.339 15.3093 13.1445 12.7306L13.1367 12.7214L13.1294 12.7119C11.5403 10.6519 9.98125 9.56246 9.06713 8.93759L9.06694 8.93746C9.06158 8.93379 9.05572 8.92978 9.04937 8.92544C8.87446 8.80588 8.33419 8.43658 8.0857 8.18809C7.53623 7.63862 7.53623 6.74619 8.0857 6.19672L8.08659 6.19583C8.64561 5.63964 9.53004 5.66295 10.1056 6.22362C10.1746 6.28317 10.2991 6.37248 10.4894 6.49936L10.4915 6.50077L10.6532 6.60976L10.6564 6.61187L10.6564 6.61188L10.664 6.61711C12.0001 7.53247 14.514 9.25466 16.7378 12.9416C16.8273 13.0897 16.9985 13.1632 17.1525 13.134L17.1585 13.1329L17.1585 13.1329C17.3256 13.1034 17.4559 12.9756 17.4887 12.8093C17.7151 11.6525 17.7774 10.2121 17.5257 8.80918C17.274 7.40554 16.7146 6.07263 15.7277 5.08571C14.0835 3.44317 11.6155 2.49541 8.90291 1.96534C6.19941 1.43704 3.31831 1.33569 0.908338 1.33569H0.908253C0.683023 1.33566 0.5 1.51868 0.5 1.74386C0.5 4.15473 0.601352 7.03626 1.12986 9.73998C1.66013 12.4527 2.60829 14.9207 4.25163 16.565C4.25166 16.565 4.25169 16.565 4.25172 16.5651M22.3452 15.0634L4.25172 16.5651M22.3452 15.0634C22.1559 12.3687 22.8911 10.0617 24.2725 8.68023C25.9168 7.0369 28.3848 6.08874 31.0975 5.55847C33.8012 5.02996 36.6827 4.9286 39.0936 4.9286C39.3217 4.9286 39.5008 5.11047 39.4999 5.33295V5.3349C39.4999 7.74588 39.399 10.6274 38.8707 13.3311C38.3407 16.0439 37.3925 18.5118 35.7483 20.156L35.748 20.1562C34.5093 21.3967 32.4951 22.133 30.1494 22.133C30.0364 22.133 29.9234 22.1313 29.8086 22.1278L29.8085 22.1278C27.4877 22.0576 25.4572 21.3035 24.3156 20.1883L23.8779 19.7606L23.5461 20.2748C20.3311 25.2582 19.481 31.2838 19.481 36.2564C19.481 36.4816 19.2979 36.6646 19.0727 36.6646C18.8475 36.6646 18.6645 36.4816 18.6645 36.2564C18.6645 27.3678 17.1656 21.5149 15.2598 17.5658L15.0257 17.0807L14.5593 17.3501C13.2765 18.0912 11.5791 18.5292 9.8342 18.5292C7.68237 18.5292 5.58337 17.8966 4.25172 16.5651M22.3452 15.0634L4.25172 16.5651M31.3447 12.3795L31.3465 12.3793C31.3444 12.3796 31.3433 12.3797 31.3447 12.3795Z" fill="#2BA300" stroke="#2BA300"/>
</svg>
