<svg width="32" height="32" viewBox="0 0 32 32" fill="none" xmlns="http://www.w3.org/2000/svg">
<path d="M16.0352 32H15.9648C7.16189 32 0 24.8381 0 16.0352V15.9648C0 7.1619 7.16189 0 15.9648 0H16.0352C24.8381 0 32 7.1619 32 15.9648V16.0352C32 24.8381 24.8381 32 16.0352 32ZM15.9648 1.08317C7.75871 1.08317 1.08317 7.75873 1.08317 15.9648V16.0352C1.08317 24.2413 7.75871 30.9168 15.9648 30.9168H16.0352C24.2413 30.9168 30.9168 24.2413 30.9168 16.0352V15.9648C30.9168 7.75873 24.2413 1.08317 16.0352 1.08317H15.9648Z" fill="#00B0F2"/>
<path d="M6.6377 16.233C6.67518 16.2134 6.71267 16.1947 6.74921 16.1771C7.3844 15.8691 8.02803 15.5807 8.67072 15.2923C8.70539 15.2923 8.76346 15.2502 8.79625 15.2364C8.8459 15.2139 8.89557 15.1923 8.94522 15.1697C9.04078 15.1266 9.13634 15.0844 9.23097 15.0412C9.42209 14.9559 9.61226 14.8706 9.80338 14.7852C10.1847 14.6146 10.566 14.4439 10.9473 14.2723C11.7099 13.9309 12.4735 13.5886 13.2361 13.2473C13.9987 12.906 14.7622 12.5636 15.5248 12.2223C16.2874 11.881 17.051 11.5386 17.8136 11.1973C18.5762 10.856 19.3398 10.5137 20.1024 10.1723C20.272 10.0958 20.4556 9.98205 20.6373 9.9487C20.79 9.92025 20.939 9.86532 21.0926 9.83492C21.384 9.77705 21.7053 9.7535 21.9845 9.88003C22.081 9.92417 22.17 9.98596 22.244 10.0635C22.5982 10.4303 22.5485 11.0325 22.4736 11.5485C21.9517 15.1442 21.4299 18.741 20.9071 22.3368C20.8359 22.8301 20.7385 23.3716 20.3666 23.6835C20.0518 23.9473 19.6039 23.9768 19.2151 23.865C18.8263 23.7522 18.4835 23.5158 18.1471 23.2833C16.7521 22.3162 15.3562 21.3491 13.9612 20.382C13.6296 20.1524 13.2604 19.8523 13.2642 19.4354C13.2661 19.1843 13.4094 18.9607 13.5555 18.7616C14.7678 17.1059 16.517 15.9681 17.8183 14.389C18.0019 14.1663 18.1462 13.7642 17.8942 13.6357C17.7443 13.5592 17.5719 13.6632 17.4351 13.7622C15.715 15.0128 13.9959 16.2644 12.2758 17.5149C11.7146 17.923 11.1263 18.3428 10.4498 18.4428C9.84462 18.5331 9.23566 18.3565 8.65012 18.176C8.1592 18.025 7.6692 17.87 7.18109 17.7101C6.92158 17.6258 6.65363 17.5346 6.45314 17.3433C6.25265 17.152 6.13743 16.8303 6.25829 16.5753C6.33418 16.4154 6.48127 16.3144 6.63585 16.232L6.6377 16.233Z" fill="#00B0F2"/>
</svg>
