<svg width="32" height="32" viewBox="0 0 32 32" fill="none" xmlns="http://www.w3.org/2000/svg">
<path d="M23.9483 8.08082C23.4182 7.59165 21.2759 6.03644 16.5039 6.01531C16.5039 6.01531 10.8766 5.67597 8.13341 8.19222C6.60637 9.71958 6.06919 11.9544 6.01252 14.7252C5.95586 17.496 5.88255 22.6885 10.8878 24.0965H10.8926L10.8894 26.2449C10.8894 26.2449 10.8574 27.1147 11.4301 27.292C12.1229 27.5072 12.5295 26.8461 13.1909 26.1335C13.5539 25.7423 14.0552 25.1676 14.433 24.7284C17.8562 25.0165 20.489 24.358 20.788 24.2607C21.4791 24.0366 25.3902 23.5356 26.0263 18.3433C26.6829 12.9917 25.7088 9.60657 23.9483 8.08082Z" fill="white"/>
<path d="M22.8344 9.16188C22.3862 8.75466 20.4516 7.53912 16.4151 7.52151C16.4151 7.52151 11.6351 7.20746 9.31481 9.30914C8.02339 10.5842 7.58833 12.4804 7.54063 14.7943C7.49293 17.1082 7.24578 21.5286 11.4783 22.7045C11.4783 22.7045 11.4616 25.9862 11.4597 26.2746C11.4597 26.4763 11.4917 26.6143 11.607 26.6428C11.6899 26.663 11.8141 26.6201 11.9197 26.5147C12.5965 25.8351 14.7632 23.2212 14.7632 23.2212C17.6703 23.411 19.9833 22.837 20.232 22.7557C20.8185 22.5672 23.9907 22.2947 24.5276 17.9582C25.0824 13.4882 24.3236 10.437 22.8344 9.16188Z" fill="#7360F2"/>
<path d="M18.4683 14.6041C18.4158 13.5457 17.8782 12.9899 16.8555 12.9365" stroke="white" stroke-width="0.539746" stroke-linecap="round" stroke-linejoin="round"/>
<path d="M19.8522 15.0683C19.8735 14.0823 19.5815 13.2585 18.976 12.5969C18.3677 11.9329 17.5258 11.5674 16.4453 11.4883" stroke="white" stroke-width="0.539746" stroke-linecap="round" stroke-linejoin="round"/>
<path d="M21.2708 15.6226C21.2578 13.9116 20.7466 12.564 19.7371 11.58C18.7276 10.5959 17.4721 10.0986 15.9707 10.0881" stroke="white" stroke-width="0.539746" stroke-linecap="round" stroke-linejoin="round"/>
<path d="M16.9078 18.2189C16.9078 18.2189 17.2872 18.2509 17.4914 17.9993L17.8897 17.4982C18.0818 17.2498 18.5453 17.0914 18.9993 17.3443C19.3394 17.5383 19.6697 17.7492 19.9888 17.9762C20.29 18.1977 20.9069 18.7125 20.9089 18.7125C21.2027 18.9606 21.2706 19.3249 21.0705 19.7091C21.0705 19.7113 21.0689 19.7152 21.0689 19.7171C20.8486 20.0991 20.5688 20.4436 20.2401 20.7377C20.2363 20.7396 20.2363 20.7415 20.2327 20.7434C19.9472 20.982 19.6666 21.1177 19.3911 21.1503C19.3505 21.1574 19.3093 21.16 19.2682 21.158C19.1467 21.1592 19.0258 21.1406 18.9103 21.1029L18.9013 21.0898C18.4768 20.9701 17.768 20.6704 16.5877 20.0193C15.9046 19.6469 15.2544 19.2174 14.6438 18.7352C14.3378 18.4937 14.0459 18.2348 13.7696 17.9599L13.7401 17.9304L13.7106 17.901L13.6812 17.8715C13.6713 17.8619 13.6617 17.852 13.6517 17.8421C13.3768 17.5657 13.1179 17.2738 12.8764 16.9678C12.3943 16.3573 11.9648 15.7071 11.5923 15.0242C10.9412 13.8436 10.6415 13.1355 10.5218 12.7103L10.5087 12.7014C10.4711 12.5858 10.4526 12.4649 10.4539 12.3434C10.4517 12.3023 10.4542 12.2611 10.4613 12.2205C10.4956 11.9454 10.6315 11.6647 10.8688 11.3782C10.8707 11.3747 10.8727 11.3747 10.8746 11.3709C11.1686 11.0422 11.5131 10.7625 11.8952 10.5424C11.8971 10.5424 11.9009 10.5405 11.9032 10.5405C12.2873 10.3404 12.6516 10.4082 12.8994 10.7005C12.9013 10.7024 13.4152 11.3193 13.6357 11.6206C13.8628 11.94 14.0737 12.2706 14.2677 12.6111C14.5206 13.0647 14.3621 13.5292 14.1137 13.7207L13.6127 14.1189C13.3598 14.3232 13.3931 14.7025 13.3931 14.7025C13.3931 14.7025 14.1351 17.511 16.9078 18.2189Z" fill="white"/>
<path d="M16.0352 32H15.9648C7.1619 32 0 24.8381 0 16.0352V15.9648C0 7.1619 7.1619 0 15.9648 0H16.0352C24.8381 0 32 7.1619 32 15.9648V16.0352C32 24.8381 24.8381 32 16.0352 32ZM15.9648 1.08317C7.75872 1.08317 1.08317 7.75873 1.08317 15.9648V16.0352C1.08317 24.2413 7.75872 30.9168 15.9648 30.9168H16.0352C24.2413 30.9168 30.9168 24.2413 30.9168 16.0352V15.9648C30.9168 7.75873 24.2413 1.08317 16.0352 1.08317H15.9648Z" fill="#7360F2"/>
</svg>
