<svg width="25" height="26" viewBox="0 0 25 26" fill="none" xmlns="http://www.w3.org/2000/svg">
<path fill-rule="evenodd" clip-rule="evenodd" d="M23.0721 11.763L11.3039 23.2494C8.81945 25.6744 4.82525 25.6259 2.40016 23.1413C-0.0250051 20.6567 0.0233526 16.6621 2.50757 14.2374L14.2758 2.75089C16.7604 0.325802 20.7549 0.374238 23.1801 2.85889C25.6052 5.34347 25.5567 9.33787 23.0721 11.763ZM21.8364 6.1708C21.8515 6.18949 23.2653 8.06874 20.1281 11.1308C19.8811 11.3719 19.8761 11.767 20.1171 12.0139C20.3582 12.2609 20.7538 12.2655 21.0005 12.0246C24.9319 8.18732 22.9065 5.51082 22.8182 5.39862C22.6053 5.12783 22.2123 5.0805 21.9411 5.2943C21.9233 5.30785 21.9064 5.32292 21.8907 5.33823C21.665 5.55854 21.6375 5.91762 21.8364 6.1708Z" fill="#2BA300"/>
</svg>
