<svg width="32" height="32" viewBox="0 0 32 32" fill="none" xmlns="http://www.w3.org/2000/svg">
<path d="M16.0352 32H15.9648C7.1619 32 0 24.8381 0 16.0352V15.9648C0 7.1619 7.1619 0 15.9648 0H16.0352C24.8381 0 32 7.1619 32 15.9648V16.0352C32 24.8381 24.8381 32 16.0352 32ZM15.9648 1.08317C7.75872 1.08317 1.08317 7.75873 1.08317 15.9648V16.0352C1.08317 24.2413 7.75872 30.9168 15.9648 30.9168H16.0352C24.2413 30.9168 30.9168 24.2413 30.9168 16.0352V15.9648C30.9168 7.75873 24.2413 1.08317 16.0352 1.08317H15.9648Z" fill="#00E510"/>
<path d="M19.6039 19.5932C15.9782 19.5932 13.0283 16.6423 13.0273 13.0166C13.0283 12.0975 13.7767 11.3501 14.6938 11.3501C14.7881 11.3501 14.8814 11.358 14.9707 11.3739C15.1673 11.4067 15.3539 11.4732 15.5256 11.5734C15.5504 11.5883 15.5673 11.6121 15.5712 11.6399L15.9544 14.0548C15.9593 14.0826 15.9504 14.1113 15.9315 14.1322C15.7201 14.3664 15.4501 14.5352 15.1494 14.6195L15.0045 14.6602L15.0591 14.8002C15.5534 16.0587 16.5598 17.0642 17.8193 17.5604L17.9593 17.616L18 17.4711C18.0844 17.1704 18.2531 16.9004 18.4873 16.689C18.5042 16.6731 18.527 16.6652 18.5499 16.6652C18.5548 16.6652 18.5598 16.6652 18.5657 16.6662L20.9806 17.0493C21.0094 17.0542 21.0332 17.0701 21.0481 17.0949C21.1474 17.2666 21.2139 17.4542 21.2476 17.6508C21.2635 17.7381 21.2704 17.8304 21.2704 17.9267C21.2704 18.8448 20.523 19.5922 19.6039 19.5932Z" fill="#00E510"/>
<path d="M26.0349 14.6543C25.8393 12.4449 24.8269 10.3953 23.1843 8.88368C21.5317 7.3631 19.3878 6.52539 17.1456 6.52539C12.2246 6.52539 8.2207 10.5293 8.2207 15.4504C8.2207 17.1019 8.67626 18.7109 9.53878 20.1123L7.61523 24.3703L13.774 23.7143C14.8449 24.153 15.9784 24.3753 17.1446 24.3753C17.4513 24.3753 17.766 24.3594 18.0816 24.3267C18.3595 24.2969 18.6404 24.2532 18.9163 24.1976C23.0374 23.3649 26.0458 19.7074 26.0696 15.498V15.4504C26.0696 15.1824 26.0577 14.9144 26.0339 14.6553L26.0349 14.6543ZM14.0112 21.8453L10.6038 22.2086L11.6212 19.9545L11.4177 19.6816C11.4028 19.6617 11.3879 19.6419 11.371 19.619C10.4877 18.3992 10.0212 16.958 10.0212 15.4513C10.0212 11.5229 13.2172 8.32686 17.1456 8.32686C20.826 8.32686 23.9456 11.1983 24.2463 14.8638C24.2622 15.0603 24.2711 15.2578 24.2711 15.4523C24.2711 15.5079 24.2701 15.5625 24.2691 15.6211C24.1937 18.9074 21.8979 21.6984 18.6861 22.4091C18.4409 22.4637 18.1898 22.5054 17.9397 22.5322C17.6796 22.5619 17.4126 22.5768 17.1476 22.5768C16.2037 22.5768 15.2866 22.3942 14.4201 22.0329C14.3238 21.9942 14.2295 21.9525 14.1412 21.9098L14.0122 21.8473L14.0112 21.8453Z" fill="#00E510"/>
</svg>
