<svg width="1197" height="1073" viewBox="0 0 1197 1073" fill="none" xmlns="http://www.w3.org/2000/svg">
<path fill-rule="evenodd" clip-rule="evenodd" d="M989.212 859.643C1041.35 846.574 1087.89 824.973 1123.31 789.083C1155.79 756.175 1158.65 713.118 1174.49 671.928C1205.69 590.791 1123.31 641.771 1197 584.994C1130.68 523.355 1085.21 488.674 989.212 499.718C918.008 507.909 848.064 466.068 782.192 491.068C679.822 529.918 544.111 574.715 535.443 671.928C526.79 768.986 646.504 841.683 747.216 883.345C823.48 914.894 908.101 879.972 989.212 859.643Z" fill="#FFF7B2"/>
<path fill-rule="evenodd" clip-rule="evenodd" d="M336.058 242.329C408.914 223.212 458.599 149.705 533.093 150.306C647.805 151.231 787.345 154.814 842.28 246.41C899.227 341.361 872.14 488.069 782.767 566.603C699.695 639.6 571.432 552 463.143 579.567C382.03 600.217 335.846 713.155 254.759 701.02C170.48 688.408 135.345 598.02 101.725 525.481C64.7603 445.726 -2.32047 347.255 57.3692 275.131C118.311 201.493 241.588 267.117 336.058 242.329Z" fill="#EAF6DA"/>
</svg>
