<svg width="858" height="523" viewBox="0 0 858 523" fill="none" xmlns="http://www.w3.org/2000/svg">
<path fill-rule="evenodd" clip-rule="evenodd" d="M203.972 156.085C274.252 154.018 345.9 158.173 400.923 187.236C460.903 218.917 504.48 265.181 508.346 316.853C512.302 369.722 489.064 431.531 421.239 458.748C357.963 484.139 286.48 438.027 213.504 435.166C154.365 432.848 84.9271 471.659 42.7327 443.911C0.466022 416.115 55.804 368.122 50.8331 328.189C45.1454 282.498 -23.0161 238.25 12.2045 198.667C48.3141 158.086 134.331 158.133 203.972 156.085Z" fill="#EAF6DA"/>
<path fill-rule="evenodd" clip-rule="evenodd" d="M456.918 61.887C519.784 46.8974 586.334 39.9904 647.612 69.2849C714.41 101.219 772.077 155.507 795.89 223.937C820.255 293.952 823.493 380.653 772.737 428.848C725.385 473.812 642.492 424.58 575.247 433.449C520.752 440.637 473.091 504.618 423.954 474.85C374.733 445.031 406.009 371.223 385.809 318.685C362.697 258.571 283.546 211.254 299.901 152.192C316.668 91.6404 394.623 76.7405 456.918 61.887Z" fill="#FFF8F1"/>
</svg>
