<svg width="1068" height="797" viewBox="0 0 1068 797" fill="none" xmlns="http://www.w3.org/2000/svg">
<path fill-rule="evenodd" clip-rule="evenodd" d="M736.262 178.607C792.079 176.083 796.343 200.14 842.493 220.626C902.861 247.424 1046.23 230.944 1060.35 275.687C1076.87 328.017 1043.67 402.792 986.092 441.163C925.38 481.625 834.279 498.711 743.78 497.312C651.471 495.885 541.436 483.816 495.435 433.58C451.566 385.67 464.943 345.986 494.65 295.265C511.901 265.812 501.391 242.718 538.569 221.656C575.081 200.971 686.308 180.866 736.262 178.607Z" fill="#064628"/>
<path fill-rule="evenodd" clip-rule="evenodd" d="M336.058 242.329C408.914 223.212 458.599 149.705 533.093 150.306C647.805 151.23 787.345 154.814 842.28 246.41C899.227 341.361 872.14 488.069 782.767 566.603C699.695 639.6 571.432 552 463.143 579.567C382.03 600.216 335.846 713.154 254.759 701.02C170.48 688.407 135.345 598.02 101.725 525.48C64.7604 445.726 -2.32038 347.255 57.3693 275.13C118.311 201.493 241.588 267.117 336.058 242.329Z" fill="#FFF7B2"/>
</svg>
