<svg width="1040" height="783" viewBox="0 0 1040 783" fill="none" xmlns="http://www.w3.org/2000/svg">
<path fill-rule="evenodd" clip-rule="evenodd" d="M742.003 42.8264C795.613 58.2207 843.456 83.6658 879.878 125.943C913.273 164.707 916.21 215.425 932.498 263.945C964.58 359.521 1088.4 468.136 1019.41 541.603C951.225 614.21 840.705 479.809 742.003 466.8C668.793 457.151 596.88 506.437 529.153 476.989C423.9 431.225 284.368 378.457 275.456 263.945C266.558 149.616 389.644 63.983 493.192 14.9066C571.604 -22.2566 658.608 18.8798 742.003 42.8264Z" fill="#870309"/>
<path fill-rule="evenodd" clip-rule="evenodd" d="M502.141 249.611C592.41 238.756 682.329 138.851 758.281 190.958C833.785 242.757 828.8 367.05 806.689 458.545C788.422 534.131 707.726 563.068 655.016 618.252C602.193 673.556 575.048 759.995 502.141 777.392C417.308 797.636 333.089 760.066 258.75 712.813C153.704 646.041 -10.4788 586.488 0.525968 458.545C11.7219 328.379 182.681 294.606 298.885 246.205C364.318 218.95 432.161 258.027 502.141 249.611Z" fill="#EAF6DA"/>
</svg>
