<svg width="598" height="718" viewBox="0 0 598 718" fill="none" xmlns="http://www.w3.org/2000/svg">
<path fill-rule="evenodd" clip-rule="evenodd" d="M237.265 281.126C319.016 278.304 402.358 283.978 466.362 323.668C536.132 366.933 586.821 430.113 591.319 500.68C595.921 572.881 568.889 657.291 489.995 694.459C416.39 729.135 333.239 666.162 248.352 662.255C179.561 659.089 98.7889 712.091 49.7075 674.197C0.542007 636.237 64.9122 570.695 59.13 516.162C52.514 453.763 -26.7729 393.335 14.1964 339.279C56.1998 283.858 156.256 283.923 237.265 281.126Z" fill="#EAF6DA"/>
<path fill-rule="evenodd" clip-rule="evenodd" d="M62.8893 228.261C82.0553 174.399 109.871 122.695 165.427 96.2313C225.988 67.3836 300.713 58.325 370.213 81.8709C441.324 105.962 515.777 155.062 530.616 219.953C544.461 280.493 461.241 310.595 434.723 363.961C413.233 407.207 442.894 479.245 393.072 496.743C343.165 514.271 296.974 448.126 242.646 431.419C180.484 412.303 100.763 440.865 59.4202 394.14C17.0341 346.236 43.8975 281.633 62.8893 228.261Z" fill="#FFF8F1"/>
</svg>
