<svg width="964" height="606" viewBox="0 0 964 606" fill="none" xmlns="http://www.w3.org/2000/svg">
<path fill-rule="evenodd" clip-rule="evenodd" d="M241.517 101.808C324.733 98.9351 409.568 104.711 474.719 145.112C545.739 189.152 597.337 253.465 601.916 325.296C606.6 398.791 579.084 484.714 498.775 522.548C423.852 557.845 339.211 493.743 252.803 489.767C182.779 486.544 100.559 540.496 50.5985 501.922C0.551876 463.283 66.0757 396.566 60.1899 341.055C53.4552 277.538 -27.2525 216.027 14.451 161.003C57.2071 104.589 159.056 104.655 241.517 101.808Z" fill="#870309"/>
<path fill-rule="evenodd" clip-rule="evenodd" d="M568.102 72.0729C630.03 54.7373 695.587 46.7493 755.95 80.6286C821.752 117.56 878.558 180.346 902.016 259.485C926.017 340.458 929.207 440.729 879.209 496.467C832.563 548.468 750.907 491.531 684.665 501.788C630.984 510.101 584.034 584.096 535.63 549.669C487.143 515.183 517.953 429.823 498.055 369.062C475.287 299.539 397.318 244.817 413.428 176.512C429.945 106.483 506.737 89.2511 568.102 72.0729Z" fill="#EAF6DA"/>
</svg>
