<svg width="588" height="774" viewBox="0 0 588 774" fill="none" xmlns="http://www.w3.org/2000/svg">
<path fill-rule="evenodd" clip-rule="evenodd" d="M184.598 636.129C140.912 589.056 101.451 536.672 92.1187 478.285C81.9449 414.639 93.3971 352.084 132.971 313.151C173.462 273.316 237.455 245.983 300.06 273.712C358.467 299.581 363.819 381.297 405.123 433.69C438.595 476.148 511.562 496.854 514.292 545.46C517.027 594.15 445.045 589.623 415.647 621.08C382.01 657.073 386.887 735.188 333.748 738.649C279.268 742.198 227.888 682.775 184.598 636.129Z" fill="#870309"/>
<path fill-rule="evenodd" clip-rule="evenodd" d="M192.517 121.737C232.781 92.7712 278.151 69.6144 330.851 78.1603C388.3 87.4761 446.084 117.902 484.045 169.011C522.885 221.304 551.764 293.089 530.317 346.711C510.308 396.737 436.075 377.131 390.811 402.113C354.13 422.358 339.728 488.396 295.545 476.285C251.286 464.153 250.985 394.159 220.472 355.42C185.559 311.094 114.583 292.116 108.153 238.371C101.562 183.269 152.62 150.44 192.517 121.737Z" fill="#012D18"/>
</svg>
