<svg width="313" height="304" viewBox="0 0 313 304" fill="none" xmlns="http://www.w3.org/2000/svg">
<path fill-rule="evenodd" clip-rule="evenodd" d="M198.429 233.035C172.201 249.665 143.82 263.818 115.237 263.117C84.0788 262.353 55.3425 251.402 40.3132 229.159C24.9356 206.4 17.5714 173.566 36.2656 146.238C53.7065 120.743 93.0326 125.39 121.58 110.362C144.714 98.1829 160.981 65.3099 184.333 68.2896C207.725 71.2745 199.238 105.103 211.608 121.85C225.762 141.012 263.334 145.567 260.303 171.139C257.196 197.356 224.419 216.557 198.429 233.035Z" fill="#870309"/>
<path fill-rule="evenodd" clip-rule="evenodd" d="M120.827 58.8679C140.297 44.861 162.236 33.6632 187.72 37.7957C215.501 42.3005 243.443 57.0135 261.8 81.7279C280.581 107.015 294.546 141.728 284.175 167.657C274.5 191.849 238.603 182.368 216.715 194.448C198.977 204.238 192.013 236.172 170.648 230.315C149.245 224.448 149.1 190.602 134.345 171.869C117.462 150.435 83.1409 141.257 80.0319 115.268C76.8444 88.6227 101.534 72.7476 120.827 58.8679Z" fill="#012D18"/>
</svg>
