<svg width="627" height="596" viewBox="0 0 627 596" fill="none" xmlns="http://www.w3.org/2000/svg">
<path fill-rule="evenodd" clip-rule="evenodd" d="M391.206 187.85C422.735 226.14 448.8 269.903 443.708 323.049C438.156 380.983 411.561 440.627 363.036 481.839C313.386 524.005 243.636 557.502 188.731 539.596C137.506 522.891 152.231 447.537 124.352 403.998C101.759 368.714 34.9226 358.648 44.1283 313.77C53.3498 268.814 123.175 263.951 159.843 230.978C201.798 193.25 216.11 121.187 269.321 111.268C323.876 101.099 359.964 149.908 391.206 187.85Z" fill="#012D18"/>
<path fill-rule="evenodd" clip-rule="evenodd" d="M248.083 101.198C307.599 77.0674 370.579 58.7725 428.476 70.7736C491.589 83.856 546.004 116.768 568.353 167.586C591.22 219.58 594.056 289.109 545.91 337.793C500.992 383.213 422.698 359.208 359.055 379.223C307.48 395.443 262.22 456.309 215.811 441.606C169.321 426.879 199.105 361.191 180.133 322.542C158.425 278.318 83.6666 255.148 99.2944 204.241C115.316 152.049 189.108 125.11 248.083 101.198Z" fill="#064628"/>
</svg>
