<svg width="607" height="602" viewBox="0 0 607 602" fill="none" xmlns="http://www.w3.org/2000/svg">
<path fill-rule="evenodd" clip-rule="evenodd" d="M391.206 193.85C422.735 232.14 448.8 275.903 443.708 329.049C438.156 386.983 411.561 446.627 363.036 487.839C313.386 530.005 243.636 563.502 188.731 545.596C137.506 528.891 152.231 453.537 124.352 409.998C101.759 374.714 34.9226 364.648 44.1283 319.77C53.3498 274.814 123.175 269.951 159.843 236.978C201.798 199.25 216.11 127.187 269.321 117.268C323.876 107.099 359.964 155.908 391.206 193.85Z" fill="#FFCA75"/>
<path fill-rule="evenodd" clip-rule="evenodd" d="M228.084 101.198C287.6 77.0674 350.58 58.7725 408.477 70.7736C471.59 83.856 526.005 116.768 548.354 167.586C571.221 219.58 574.057 289.109 525.911 337.793C480.993 383.213 402.699 359.208 339.056 379.223C287.481 395.443 242.221 456.309 195.812 441.606C149.322 426.879 179.106 361.191 160.134 322.542C138.426 278.318 63.6675 255.148 79.2953 204.241C95.3176 152.049 169.109 125.11 228.084 101.198Z" fill="#FFF7B2"/>
</svg>
