<svg width="449" height="591" viewBox="0 0 449 591" fill="none" xmlns="http://www.w3.org/2000/svg">
<path fill-rule="evenodd" clip-rule="evenodd" d="M140.92 485.614C107.57 449.679 77.4462 409.689 70.3215 365.118C62.555 316.531 71.2975 268.777 101.508 239.056C132.418 208.646 181.27 187.781 229.062 208.948C273.649 228.697 277.735 291.078 309.266 331.074C334.818 363.486 390.521 379.293 392.604 416.398C394.692 453.567 339.742 450.112 317.3 474.126C291.622 501.602 295.345 561.234 254.779 563.877C213.189 566.586 173.967 521.223 140.92 485.614Z" fill="#870309"/>
<path fill-rule="evenodd" clip-rule="evenodd" d="M146.966 92.9328C177.702 70.8206 212.337 53.143 252.568 59.6668C296.424 66.7784 340.535 90.0054 369.514 129.021C399.165 168.941 421.211 223.741 404.838 264.675C389.564 302.865 332.895 287.898 298.341 306.969C270.339 322.424 259.345 372.836 225.616 363.591C191.829 354.329 191.599 300.897 168.306 271.324C141.654 237.486 87.4711 222.998 82.563 181.97C77.531 139.906 116.508 114.844 146.966 92.9328Z" fill="#012D18"/>
</svg>
