<svg width="1552" height="1189" viewBox="0 0 1552 1189" fill="none" xmlns="http://www.w3.org/2000/svg">
<path fill-rule="evenodd" clip-rule="evenodd" d="M695.53 482.849C656.294 577.941 631.219 680.563 673.629 782.846C719.859 894.343 808.855 996.438 930.129 1048.65C1054.21 1102.07 1212.88 1126.08 1310.86 1057.2C1402.27 992.929 1327.26 852.469 1356.07 749.188C1379.42 665.49 1505.82 604.895 1460.28 521.505C1414.67 437.973 1273.26 470.783 1180.5 427.697C1074.38 378.398 1002.18 244.212 890.645 256.896C776.29 269.901 734.41 388.622 695.53 482.849Z" fill="#C0CA99"/>
<path fill-rule="evenodd" clip-rule="evenodd" d="M336.167 40.6094C451.961 30.4316 570.654 32.1909 664.475 83.6792C766.748 139.806 843.449 225.634 855.159 325.43C867.141 427.539 835.155 549.361 726.008 608.06C624.178 662.824 501.43 579.741 380.677 580.607C282.821 581.309 172.205 662.619 99.6959 612.551C27.0622 562.398 113.457 464.532 101.134 387.583C87.0343 299.537 -30.039 219.774 24.0162 139.973C79.436 58.1579 221.424 50.6948 336.167 40.6094Z" fill="#FFF7B2"/>
</svg>
