<svg width="679" height="610" viewBox="0 0 679 610" fill="none" xmlns="http://www.w3.org/2000/svg">
<path fill-rule="evenodd" clip-rule="evenodd" d="M493.489 194.027C517.517 248.33 533.482 307.186 510.498 366.829C485.445 431.845 435.575 492.058 366.351 523.956C295.524 556.593 204.31 572.761 146.763 534.436C93.0743 498.68 134.315 416.531 116.186 357.349C101.494 309.389 27.6655 276.263 52.7301 227.477C77.8376 178.608 159.919 195.482 212.817 169.266C273.343 139.27 313.048 60.7822 377.6 66.4769C443.781 72.3153 469.679 140.217 493.489 194.027Z" fill="#EAF6DA"/>
<path fill-rule="evenodd" clip-rule="evenodd" d="M309.955 35.0729C386.352 26.4097 464.866 25.5913 527.762 58.0707C596.326 93.4762 648.476 148.947 657.885 214.741C667.513 282.058 648.397 363.145 577.205 403.781C510.786 441.693 428.234 388.805 348.403 391.394C283.709 393.491 211.923 449.103 163.142 417.208C114.277 385.257 169.77 319.102 160.337 268.427C149.543 210.443 70.7988 159.656 105.21 105.987C140.489 50.9627 234.252 43.6574 309.955 35.0729Z" fill="#012D18"/>
</svg>
