<svg width="449" height="591" viewBox="0 0 449 591" fill="none" xmlns="http://www.w3.org/2000/svg">
<path fill-rule="evenodd" clip-rule="evenodd" d="M140.919 485.614C107.569 449.679 77.4452 409.689 70.3205 365.118C62.554 316.531 71.2965 268.777 101.507 239.056C132.417 208.646 181.269 187.781 229.061 208.948C273.648 228.697 277.734 291.078 309.265 331.074C334.817 363.486 390.52 379.293 392.603 416.398C394.691 453.567 339.741 450.112 317.299 474.126C291.621 501.602 295.344 561.234 254.778 563.877C213.188 566.586 173.966 521.223 140.919 485.614Z" fill="#F1FFB2"/>
<path fill-rule="evenodd" clip-rule="evenodd" d="M146.965 92.9328C177.701 70.8206 212.336 53.143 252.567 59.6668C296.423 66.7784 340.534 90.0054 369.513 129.021C399.164 168.941 421.21 223.741 404.837 264.675C389.563 302.865 332.894 287.898 298.34 306.969C270.338 322.424 259.344 372.836 225.615 363.591C191.828 354.329 191.598 300.897 168.305 271.324C141.653 237.486 87.4701 222.998 82.562 181.97C77.53 139.906 116.507 114.844 146.965 92.9328Z" fill="#870309"/>
</svg>
