<svg width="257" height="232" viewBox="0 0 257 232" fill="none" xmlns="http://www.w3.org/2000/svg">
<path fill-rule="evenodd" clip-rule="evenodd" d="M179.572 213.64C153.192 218.001 125.939 219.675 103.52 209.509C79.081 198.426 59.9872 180.084 55.5544 157.401C51.019 134.192 56.2225 105.692 80.2281 90.3183C102.624 75.9756 132.231 92.8821 159.911 90.5698C182.342 88.6959 206.288 68.1109 223.795 78.3247C241.332 88.5561 223.23 112.514 227.403 129.947C232.178 149.894 260.425 166.138 249.425 185.387C238.146 205.121 205.712 209.318 179.572 213.64Z" fill="#F1FFB2"/>
<path fill-rule="evenodd" clip-rule="evenodd" d="M2.7551 92.7663C1.94205 72.1322 4.31887 51.0589 19.3887 34.7198C35.8161 16.9087 59.6517 3.82889 86.1176 2.38252C113.197 0.902626 144.757 7.35822 158.454 27.1198C171.232 45.5564 147.377 66.8334 145.658 88.2892C144.265 105.677 163.891 125.843 149.539 138.405C135.162 150.989 110.786 135.021 90.3264 136.721C66.9159 138.666 44.0262 158.956 23.8857 148.847C3.23671 138.483 3.56077 113.213 2.7551 92.7663Z" fill="#870309"/>
</svg>
