<svg width="356" height="422" viewBox="0 0 356 422" fill="none" xmlns="http://www.w3.org/2000/svg">
<path fill-rule="evenodd" clip-rule="evenodd" d="M85.496 291.694C83.9304 246.995 87.6309 201.409 112.356 166.331C139.308 128.093 178.553 100.249 222.269 97.6507C266.998 94.9918 319.217 109.607 342.062 152.676C363.374 192.857 324.185 238.451 321.576 284.879C319.462 322.503 352.109 366.567 328.529 393.481C304.909 420.442 264.458 385.371 230.669 388.641C192.007 392.382 154.404 435.858 121.015 413.561C86.7839 390.702 87.0473 335.987 85.496 291.694Z" fill="#F1FFB2"/>
<path fill-rule="evenodd" clip-rule="evenodd" d="M141.521 11.0383C180.107 14.5272 218.737 24.0572 245.483 56.0547C274.638 90.9348 293.195 138.451 289.471 188.04C285.66 238.779 266 295.932 225.914 316.624C188.516 335.928 154.713 286.389 115.212 277.99C83.2001 271.184 40.9245 302.81 21.0314 273.063C1.1041 243.265 36.7218 201.785 38.5179 163.308C40.573 119.282 8.37213 71.7781 32.0618 36.7575C56.3495 0.852852 103.285 7.58103 141.521 11.0383Z" fill="#870309"/>
</svg>
