<svg width="598" height="718" viewBox="0 0 598 718" fill="none" xmlns="http://www.w3.org/2000/svg">
<path fill-rule="evenodd" clip-rule="evenodd" d="M237.265 281.126C319.016 278.304 402.358 283.978 466.362 323.668C536.132 366.933 586.821 430.113 591.319 500.68C595.921 572.881 568.889 657.291 489.995 694.459C416.39 729.135 333.239 666.162 248.352 662.255C179.561 659.089 98.789 712.091 49.7076 674.197C0.54209 636.237 64.9123 570.695 59.1301 516.162C52.5141 453.763 -26.7728 393.335 14.1965 339.279C56.1999 283.858 156.256 283.923 237.265 281.126Z" fill="#FFF7B2"/>
<path fill-rule="evenodd" clip-rule="evenodd" d="M62.8892 228.261C82.0552 174.399 109.871 122.695 165.427 96.2313C225.988 67.3836 300.713 58.325 370.213 81.8709C441.324 105.962 515.777 155.062 530.616 219.953C544.461 280.493 461.241 310.595 434.723 363.961C413.233 407.207 442.894 479.245 393.072 496.743C343.165 514.271 296.974 448.126 242.646 431.419C180.484 412.303 100.763 440.865 59.4201 394.14C17.034 346.236 43.8974 281.633 62.8892 228.261Z" fill="#EAF6DA"/>
</svg>
