<svg width="819" height="491" viewBox="0 0 819 491" fill="none" xmlns="http://www.w3.org/2000/svg">
<path fill-rule="evenodd" clip-rule="evenodd" d="M191.188 94.1596C257.063 91.8852 324.22 96.4576 375.794 128.44C432.015 163.303 472.86 214.213 476.485 271.076C480.193 329.255 458.411 397.273 394.837 427.223C335.527 455.165 268.524 404.421 200.122 401.273C144.69 398.722 79.6041 441.431 40.0544 410.896C0.436816 380.308 52.3063 327.494 47.647 283.551C42.3158 233.27 -21.5735 184.577 11.4395 141.019C45.2859 96.3612 125.911 96.4133 191.188 94.1596Z" fill="#EAF6DA"/>
<path fill-rule="evenodd" clip-rule="evenodd" d="M497.281 58.1325C547.58 44.0523 600.826 37.5643 649.854 65.0815C703.298 95.0778 749.438 146.073 768.49 210.351C787.984 276.118 790.575 357.559 749.966 402.831C712.08 445.066 645.758 398.822 591.955 407.153C548.355 413.904 510.222 474.004 470.907 446.042C431.525 418.032 456.549 348.701 440.388 299.351C421.896 242.884 358.568 198.437 371.653 142.959C385.068 86.0807 447.44 72.0848 497.281 58.1325Z" fill="#FFF7B2"/>
</svg>
