<svg width="1717" height="745" viewBox="0 0 1717 745" fill="none" xmlns="http://www.w3.org/2000/svg">
<path fill-rule="evenodd" clip-rule="evenodd" d="M626.955 0.02932C479.445 -0.740874 329.514 13.2997 216.224 85.3358C92.7276 163.862 4.66943 275.951 0.262518 398.515C-4.24648 523.919 48.9064 668.893 193.068 729.351C327.563 785.755 474.145 672.387 626.955 661.334C750.789 652.376 899.165 740.189 985.65 672.018C1072.28 603.73 952.815 493.35 960.378 398.515C969.032 290.004 1108.78 181.244 1032.1 89.5957C953.478 -4.36575 773.124 0.792519 626.955 0.02932Z" fill="#EAF6DA"/>
<path fill-rule="evenodd" clip-rule="evenodd" d="M1168.49 0.0256206C1297.54 -0.647395 1428.71 11.6216 1527.83 74.5686C1635.87 143.186 1712.91 241.133 1716.77 348.233C1720.72 457.814 1674.21 584.496 1548.09 637.325C1430.42 686.613 1302.18 587.549 1168.49 577.89C1060.15 570.063 930.337 646.796 854.673 587.226C778.879 527.555 883.4 431.102 876.783 348.233C869.212 253.413 746.947 158.375 814.036 78.291C882.819 -3.81491 1040.61 0.692523 1168.49 0.0256206Z" fill="#FFF7B2"/>
</svg>
